<svg width="40" height="40" viewBox="0 0 40 40" fill="none" xmlns="http://www.w3.org/2000/svg">
<path d="M35.8895 0H4.11047C1.84032 0 0 1.84032 0 4.11047V35.8895C0 38.1597 1.84032 40 4.11047 40H35.8895C38.1597 40 40 38.1597 40 35.8895V4.11047C40 1.84032 38.1597 0 35.8895 0Z" fill="url(#paint0_linear_567_3262)"/>
<path d="M6.80792 13.4099C5.98582 13.4099 5.31787 12.7677 5.31787 11.997C5.31787 11.2006 5.98582 10.584 6.80792 10.584H30.1348C30.6229 10.584 31.0854 10.7638 31.4194 11.0464L31.4707 11.1235C31.8047 11.4318 31.9845 11.8428 31.9845 12.3052V24.6623C31.9845 25.1761 31.779 25.6129 31.4194 25.9212C31.0854 26.2295 30.6229 26.4093 30.1348 26.4093H14.7463C14.2325 26.4093 13.8214 26.2295 13.4874 25.9469C13.4617 25.9212 13.436 25.8955 13.436 25.8698C13.1535 25.6129 12.9736 25.2532 12.8965 24.8936L11.0725 13.4099H6.80792ZM19.9357 27.3085C21.0918 27.3085 22.0423 28.259 22.0423 29.4408C22.0423 30.5968 21.0918 31.5474 19.9357 31.5474C18.754 31.5474 17.8034 30.5968 17.8034 29.4408C17.8034 28.259 18.754 27.3085 19.9357 27.3085ZM26.5382 27.3085C27.7199 27.3085 28.6705 28.259 28.6705 29.4408C28.6705 30.5968 27.7199 31.5474 26.5382 31.5474C25.3821 31.5474 24.4316 30.5968 24.4316 29.4408C24.4316 28.259 25.3821 27.3085 26.5382 27.3085ZM29.0044 13.4099H14.104L15.7225 23.5833H29.0044V13.4099Z" fill="white"/>
<path d="M20.9121 19.7043V19.6787L20.8864 19.653L20.8607 19.6273L20.8351 19.6016C20.8351 19.6016 20.8094 19.5759 20.7837 19.5759C19.9359 18.7795 18.6514 19.1648 18.6514 18.2914C18.6514 17.4436 19.9359 17.8033 20.7837 17.0069H20.8094C20.8351 16.9812 20.8351 16.9555 20.8607 16.9555L20.8864 16.9298L20.9121 16.9041V16.8784C21.7085 16.0306 21.3489 14.7461 22.1966 14.7461C23.0701 14.7461 22.6848 16.0306 23.4812 16.8784L23.5069 16.9041L23.5325 16.9298V16.9555L23.5582 16.9812C23.5839 16.9812 23.5839 17.0069 23.6096 17.0069C24.4574 17.8033 25.7419 17.4436 25.7419 18.2914C25.7419 19.1392 24.4574 18.7795 23.6096 19.5759L23.5839 19.6016H23.5582L23.5325 19.6273C23.5325 19.653 23.5069 19.6787 23.4812 19.7043C22.6848 20.5521 23.0701 21.8367 22.1966 21.8367C21.3489 21.8367 21.7085 20.5521 20.9121 19.7043ZM20.8094 17.0069C20.8351 16.9812 20.8351 16.9555 20.8607 16.9555L20.8094 17.0069ZM23.5582 16.9812C23.5839 16.9812 23.5839 17.0069 23.6096 17.0069L23.5582 16.9812Z" fill="#FFCC00"/>
<defs>
<linearGradient id="paint0_linear_567_3262" x1="14.6113" y1="38.1246" x2="25.3947" y2="1.88163" gradientUnits="userSpaceOnUse">
<stop stop-color="#7805A7"/>
<stop offset="1" stop-color="#C80AF8"/>
</linearGradient>
</defs>
</svg>
