<svg width="46" height="41" viewBox="0 0 46 41" fill="none" xmlns="http://www.w3.org/2000/svg">
<rect width="45.3333" height="41" rx="8" fill="#E5E0E9"/>
<path d="M20.1667 13C19.5101 13 18.8599 13.1293 18.2532 13.3806C17.6466 13.6319 17.0954 14.0002 16.6311 14.4645C16.1668 14.9288 15.7985 15.48 15.5473 16.0866C15.296 16.6932 15.1667 17.3434 15.1667 18C15.1667 18.6566 15.296 19.3068 15.5473 19.9134C15.7985 20.52 16.1668 21.0712 16.6311 21.5355C17.0954 21.9998 17.6466 22.3681 18.2532 22.6194C18.8599 22.8707 19.5101 23 20.1667 23C21.4927 23 22.7645 22.4732 23.7022 21.5355C24.6399 20.5979 25.1667 19.3261 25.1667 18C25.1667 16.6739 24.6399 15.4021 23.7022 14.4645C22.7645 13.5268 21.4927 13 20.1667 13ZM17.6667 18C17.6667 17.337 17.9301 16.7011 18.3989 16.2322C18.8677 15.7634 19.5036 15.5 20.1667 15.5C20.8297 15.5 21.4656 15.7634 21.9344 16.2322C22.4033 16.7011 22.6667 17.337 22.6667 18C22.6667 18.663 22.4033 19.2989 21.9344 19.7678C21.4656 20.2366 20.8297 20.5 20.1667 20.5C19.5036 20.5 18.8677 20.2366 18.3989 19.7678C17.9301 19.2989 17.6667 18.663 17.6667 18ZM6 11.75C6 10.7554 6.39509 9.80161 7.09835 9.09835C7.80161 8.39509 8.75544 8 9.75 8H30.5833C31.0758 8 31.5634 8.097 32.0184 8.28545C32.4734 8.47391 32.8868 8.75013 33.235 9.09835C33.5832 9.44657 33.8594 9.85997 34.0479 10.3149C34.2363 10.7699 34.3333 11.2575 34.3333 11.75V24.25C34.3333 24.7425 34.2363 25.2301 34.0479 25.6851C33.8594 26.14 33.5832 26.5534 33.235 26.9016C32.8868 27.2499 32.4734 27.5261 32.0184 27.7145C31.5634 27.903 31.0758 28 30.5833 28H9.75C8.75544 28 7.80161 27.6049 7.09835 26.9016C6.39509 26.1984 6 25.2446 6 24.25V11.75ZM9.75 10.5C9.41848 10.5 9.10054 10.6317 8.86612 10.8661C8.6317 11.1005 8.5 11.4185 8.5 11.75V13H9.75C10.0815 13 10.3995 12.8683 10.6339 12.6339C10.8683 12.3995 11 12.0815 11 11.75V10.5H9.75ZM8.5 20.5H9.75C10.7446 20.5 11.6984 20.8951 12.4016 21.5983C13.1049 22.3016 13.5 23.2554 13.5 24.25V25.5H26.8333V24.25C26.8333 23.2554 27.2284 22.3016 27.9317 21.5983C28.6349 20.8951 29.5888 20.5 30.5833 20.5H31.8333V15.5H30.5833C29.5888 15.5 28.6349 15.1049 27.9317 14.4016C27.2284 13.6984 26.8333 12.7446 26.8333 11.75V10.5H13.5V11.75C13.5 12.2425 13.403 12.7301 13.2145 13.1851C13.0261 13.64 12.7499 14.0534 12.4016 14.4016C12.0534 14.7499 11.64 15.0261 11.1851 15.2145C10.7301 15.403 10.2425 15.5 9.75 15.5H8.5V20.5ZM31.8333 13V11.75C31.8333 11.4185 31.7016 11.1005 31.4672 10.8661C31.2328 10.6317 30.9149 10.5 30.5833 10.5H29.3333V11.75C29.3333 12.44 29.8933 13 30.5833 13H31.8333ZM31.8333 23H30.5833C30.2518 23 29.9339 23.1317 29.6994 23.3661C29.465 23.6005 29.3333 23.9185 29.3333 24.25V25.5H30.5833C30.9149 25.5 31.2328 25.3683 31.4672 25.1339C31.7016 24.8995 31.8333 24.5815 31.8333 24.25V23ZM8.5 24.25C8.5 24.94 9.06 25.5 9.75 25.5H11V24.25C11 23.9185 10.8683 23.6005 10.6339 23.3661C10.3995 23.1317 10.0815 23 9.75 23H8.5V24.25ZM10.0017 30.5C10.4405 31.2604 11.0719 31.8919 11.8323 32.3307C12.5928 32.7696 13.4554 33.0004 14.3333 33H31.4167C32.4563 33 33.4858 32.7952 34.4462 32.3974C35.4067 31.9995 36.2795 31.4164 37.0146 30.6813C37.7497 29.9461 38.3329 29.0734 38.7307 28.1129C39.1286 27.1524 39.3333 26.123 39.3333 25.0833V16.3333C39.3336 15.4554 39.1027 14.5929 38.6638 13.8325C38.225 13.0721 37.5937 12.4406 36.8333 12.0017V25.0833C36.8333 26.5199 36.2627 27.8977 35.2468 28.9135C34.231 29.9293 32.8533 30.5 31.4167 30.5H10.0017Z" fill="#7805A7"/>
</svg>
