<svg width="200" height="200" viewBox="0 0 200 200" fill="none" xmlns="http://www.w3.org/2000/svg">
<path d="M179.583 0H20.4171C9.14106 0 0 9.14106 0 20.4171V179.583C0 190.859 9.14106 200 20.4171 200H179.583C190.859 200 200 190.859 200 179.583V20.4171C200 9.14106 190.859 0 179.583 0Z" fill="url(#paint0_linear_571_3636)"/>
<path d="M72.2285 91.5481C68.0573 87.3769 68.0573 80.5712 72.2285 76.3999C76.1802 72.2287 82.9859 72.2287 87.1572 76.3999L157.41 146.213C161.581 150.385 161.581 156.971 157.41 161.142C153.238 165.313 146.433 165.533 142.261 161.361L72.2285 91.5481Z" fill="black"/>
<path d="M114.819 52.6891C111.965 50.7132 108.233 51.5914 108.233 48.9569V48.7374C108.233 46.1029 111.965 46.981 114.819 45.2247C115.697 44.5661 116.575 43.688 117.234 42.8098C118.99 39.7363 118.112 36.2236 120.746 36.2236H120.966C123.381 36.2236 122.942 39.7363 124.479 42.5903C125.137 43.688 126.015 44.7857 127.333 45.4443C130.187 46.7615 133.48 46.3224 133.48 48.7374V48.9569C133.48 51.8109 128.869 50.4937 125.796 53.3477L125.576 53.5672L125.357 53.7868C122.503 56.8603 123.82 61.4706 120.966 61.4706H120.746C118.332 61.4706 118.771 58.1775 117.453 55.5431C116.795 54.2258 115.917 53.3477 114.819 52.6891ZM56.8606 98.1336C45.6642 91.3279 32.0527 94.1819 32.0527 84.0831V83.8636C32.0527 73.7648 45.4446 76.3993 56.4216 70.0326C60.5928 67.6177 64.325 63.666 66.5204 59.4948C72.0088 48.7374 69.8134 36.2236 79.6927 36.2236C89.1329 36.2236 87.5961 47.6397 92.2064 58.1775C94.4018 63.0074 98.134 67.1786 102.744 69.8131C113.721 76.3993 127.333 73.7648 127.333 83.8636V84.0831C127.333 93.9624 114.38 91.5475 103.622 97.475C98.7926 100.109 95.0604 104.281 92.6455 109.111C87.3766 119.648 89.3524 131.504 79.6927 131.504C70.2525 131.504 72.0088 119.648 66.9594 109.111C64.764 104.72 61.2514 100.768 56.8606 98.1336Z" fill="#7805A7"/>
<defs>
<linearGradient id="paint0_linear_571_3636" x1="64.8894" y1="219.154" x2="135.134" y2="-19.1315" gradientUnits="userSpaceOnUse">
<stop stop-color="#FFCC00"/>
<stop offset="1" stop-color="#FEF500"/>
</linearGradient>
</defs>
</svg>
